<?xml version="1.0" encoding="utf-8"?>
<!-- Generator: Adobe Illustrator 21.1.0, SVG Export Plug-In . SVG Version: 6.00 Build 0)  -->
<svg version="1.1" id="Layer_1" xmlns="http://www.w3.org/2000/svg" xmlns:xlink="http://www.w3.org/1999/xlink" x="0px" y="0px"
	 viewBox="0 0 172.7 46.1" style="enable-background:new 0 0 172.7 46.1;" xml:space="preserve">
<style type="text/css">
	.st0{fill:#00373B;}
</style>
<g>
	<path class="st0" d="M26.2,8.7c-2.5-1.6-5.4-2.8-8.6-3.5c-3.1-0.7-6.8-1.1-10.8-1.1c-0.1,0-1,0-2.5,0c-1.5,0-2.4,0-2.6,0H0.3l0,1.5
		c0.1,4.5,0.1,8.5,0.1,11.6c0,3.2,0,5.8,0,7.8c0,3.7,0,7.8-0.1,12.2c0,2.4-0.1,6.4-0.1,6.6v1.4h1.4c0.1,0,0.6,0,2.1,0.1
		c1.3,0,2.6,0.1,3.9,0.1c3.6,0,6.9-0.4,9.8-1.1c2.9-0.7,5.6-1.8,8-3.2c2.8-1.6,5.1-3.9,6.9-6.6c1.8-2.8,2.7-6,2.7-9.6
		c0-3.5-0.7-6.6-2.2-9.3C31.5,12.9,29.2,10.6,26.2,8.7z M27.4,24.9c0,2.4-0.6,4.6-1.7,6.3c-1.2,1.8-2.8,3.3-4.8,4.5
		c-1.6,0.9-3.6,1.7-5.9,2.2c-2.4,0.6-4.8,0.8-7.1,0.8h0l0-11.3c0-3.1,0-5,0-5.9c0-1.2,0-2.8,0-4.7c0-1.7,0-3.7,0.1-6h0.1
		c2,0,4.3,0.3,6.8,0.8c2.4,0.5,4.7,1.4,6.7,2.6c2.1,1.3,3.6,2.9,4.5,4.6C26.9,20.6,27.4,22.6,27.4,24.9z"/>
	<path class="st0" d="M65.1,17.1c-1.4-1.5-3-2.6-4.8-3.3c-1.8-0.7-3.8-1.1-5.9-1.1c-2.1,0-4.1,0.4-5.9,1.2c-1.9,0.8-3.5,1.9-4.9,3.4
		c-1.6,1.6-2.7,3.4-3.5,5.5c-0.7,2-1.1,4.2-1.1,6.5c0,2.4,0.4,4.8,1.3,7c0.9,2.2,2.1,4.1,3.7,5.7c1.4,1.3,3,2.3,4.8,3
		c1.8,0.7,3.7,1,5.7,1c2.1,0,4.1-0.4,5.8-1c1.7-0.7,3.2-1.7,4.6-3c1.6-1.6,2.9-3.5,3.8-5.7c0.9-2.2,1.3-4.5,1.3-6.9
		c0-2.4-0.4-4.7-1.1-6.7C67.9,20.6,66.7,18.7,65.1,17.1z M62.4,29.5c0,1.5-0.3,3-0.8,4.4c-0.5,1.4-1.2,2.5-2.2,3.5
		c-0.6,0.7-1.4,1.2-2.2,1.5c-0.9,0.3-1.8,0.5-2.8,0.5c-0.9,0-1.8-0.1-2.6-0.4c-0.8-0.3-1.5-0.7-2.1-1.2c-1.1-1-2-2.2-2.5-3.6
		c-0.5-1.5-0.8-3.1-0.8-4.9c0-1.5,0.3-3,0.8-4.5c0.5-1.4,1.2-2.5,2.1-3.4c0.7-0.8,1.5-1.3,2.3-1.6c0.8-0.3,1.7-0.5,2.9-0.5
		c0.9,0,1.8,0.2,2.7,0.5c0.8,0.3,1.6,0.8,2.2,1.4c1,1,1.8,2.2,2.3,3.7C62.1,26.3,62.4,27.9,62.4,29.5z"/>
	<path class="st0" d="M96.8,17.6c-1.7-1.2-3.8-2.2-6.3-2.9c-2.2-0.6-5-1-8.3-1.1l0.1-13.2h-7.4l0,1.5c0,3.3,0.1,6.6,0.1,9.8
		c0,3.2,0,6.5,0,9.9c0,5.6,0,10.4,0,14.3c0,4-0.1,6.7-0.1,8.2l0,1.5h4c3.1,0,5.8-0.2,8-0.5c2.3-0.3,4.3-0.9,6.1-1.7
		c2.9-1.2,5.2-3.1,6.8-5.5c1.7-2.5,2.5-5.5,2.5-8.9c0-2.4-0.5-4.6-1.4-6.6C100,20.6,98.6,18.9,96.8,17.6z M82.1,23.4
		c0-1.3,0-2.4,0-3.1c1.2,0,2.4,0.1,3.6,0.3c1.1,0.2,2.2,0.4,3.2,0.8c1.8,0.6,3.3,1.6,4.4,3c1.1,1.3,1.6,2.9,1.6,4.9
		c0,1.9-0.4,3.6-1.2,4.9c-0.8,1.4-1.9,2.4-3.5,3.3c-1.1,0.6-2.5,1-4.1,1.3c-1.2,0.2-2.6,0.4-4,0.4c0-0.9,0-1.7,0-2.5
		c0-1.3,0-3.6,0-6.7C82.1,28.2,82.1,26,82.1,23.4z"/>
	<path class="st0" d="M107.5,2c0.1,4.2,0.1,8.1,0.1,11.6c0,3.5,0,6.3,0,8.6c0,3.5,0,8,0,13.3c0,7-0.1,8.1-0.1,8.2l-0.1,1.6h7.5v-1.4
		c0-0.2,0-2.5-0.1-6.8c0-4.3-0.1-9.2-0.1-15.1c0-2.6,0-5.9,0-9.7c0-3.8,0-7.3,0.1-10.2l0-1.5h-7.4L107.5,2z"/>
	<path class="st0" d="M147.9,28.3c0-2.6-0.4-4.9-1-6.8c-0.7-2-1.6-3.7-2.9-5c-1.2-1.2-2.5-2.2-4.1-2.8c-1.5-0.6-3.3-0.9-5.2-0.9
		c-2,0-3.9,0.4-5.7,1.2c-1.9,0.8-3.4,1.9-4.7,3.4c-1.4,1.6-2.5,3.4-3.2,5.3c-0.7,1.9-1.1,4-1.1,6.4c0,2.4,0.5,4.7,1.4,6.6
		c0.9,2,2.1,3.6,3.5,4.9c1.6,1.5,3.6,2.7,6.1,3.6c2.4,0.8,5.2,1.3,8.4,1.3c1.2,0,2.2,0,3.1-0.1c1.2-0.1,1.5-0.1,1.6-0.1l1.1-0.1
		l0.9-6.7l-1.8,0.2c-0.2,0-0.7,0.1-1.6,0.1c-0.9,0.1-1.8,0.1-2.9,0.1c-1.9,0-3.4-0.2-4.7-0.5c-1.3-0.3-2.4-0.8-3.3-1.4
		c-1.5-1-2.6-2.1-3.3-3.6c-0.5-1.1-0.9-2.2-1-3.5h20.5L147.9,28.3z M140.3,23.6h-12.2c0.5-1.2,1.2-2.2,2-3c1.2-1.1,2.6-1.6,4.3-1.6
		c1.7,0,3.1,0.5,4.1,1.6C139.4,21.3,139.9,22.4,140.3,23.6z"/>
	<path class="st0" d="M170.9,12.5l-1.4,0.4c-1.3,0.3-3.1,1-5.2,1.9c-1.4,0.6-2.9,1.3-4.4,2.1v-3.4h-7.3l0,1.5c0,2.8,0.1,5.8,0.1,9
		c0,3.2,0,5.6,0,7.4c0,4.4,0,7.5-0.1,9.2c0,1.7-0.1,2.9-0.1,3.2v1.4h7.4v-1.4c0-0.4,0-2-0.1-5.2c0-3.1-0.1-5.7-0.1-8
		c0-1.5,0-3,0-4.7l0-0.1c0-0.8,0-1.4,0-1.9c2.4-1.1,4.6-2.1,6.5-2.8c2.1-0.8,3.7-1.3,4.6-1.5l1.4-0.3L170.9,12.5z"/>
</g>
</svg>
